<svg width="18" height="18" viewBox="0 0 18 18" fill="none" xmlns="http://www.w3.org/2000/svg">
<path d="M5.625 8.4375H12.375C12.5242 8.4375 12.6673 8.49676 12.7727 8.60225C12.8782 8.70774 12.9375 8.85082 12.9375 9C12.9375 9.14918 12.8782 9.29226 12.7727 9.39775C12.6673 9.50324 12.5242 9.5625 12.375 9.5625H5.625C5.47582 9.5625 5.33274 9.50324 5.22725 9.39775C5.12176 9.29226 5.0625 9.14918 5.0625 9C5.0625 8.85082 5.12176 8.70774 5.22725 8.60225C5.33274 8.49676 5.47582 8.4375 5.625 8.4375ZM7.3125 11.8125H4.5C3.75408 11.8125 3.03871 11.5162 2.51126 10.9887C1.98382 10.4613 1.6875 9.74592 1.6875 9C1.6875 8.25408 1.98382 7.53871 2.51126 7.01126C3.03871 6.48382 3.75408 6.1875 4.5 6.1875H7.3125C7.46168 6.1875 7.60476 6.12824 7.71025 6.02275C7.81574 5.91726 7.875 5.77418 7.875 5.625C7.875 5.47582 7.81574 5.33274 7.71025 5.22725C7.60476 5.12176 7.46168 5.0625 7.3125 5.0625H4.5C3.45571 5.0625 2.45419 5.47734 1.71577 6.21577C0.977343 6.95419 0.5625 7.95571 0.5625 9C0.5625 10.0443 0.977343 11.0458 1.71577 11.7842C2.45419 12.5227 3.45571 12.9375 4.5 12.9375H7.3125C7.46168 12.9375 7.60476 12.8782 7.71025 12.7727C7.81574 12.6673 7.875 12.5242 7.875 12.375C7.875 12.2258 7.81574 12.0827 7.71025 11.9773C7.60476 11.8718 7.46168 11.8125 7.3125 11.8125ZM13.5 5.0625H10.6875C10.5383 5.0625 10.3952 5.12176 10.2898 5.22725C10.1843 5.33274 10.125 5.47582 10.125 5.625C10.125 5.77418 10.1843 5.91726 10.2898 6.02275C10.3952 6.12824 10.5383 6.1875 10.6875 6.1875H13.5C14.2459 6.1875 14.9613 6.48382 15.4887 7.01126C16.0162 7.53871 16.3125 8.25408 16.3125 9C16.3125 9.74592 16.0162 10.4613 15.4887 10.9887C14.9613 11.5162 14.2459 11.8125 13.5 11.8125H10.6875C10.5383 11.8125 10.3952 11.8718 10.2898 11.9773C10.1843 12.0827 10.125 12.2258 10.125 12.375C10.125 12.5242 10.1843 12.6673 10.2898 12.7727C10.3952 12.8782 10.5383 12.9375 10.6875 12.9375H13.5C14.5443 12.9375 15.5458 12.5227 16.2842 11.7842C17.0227 11.0458 17.4375 10.0443 17.4375 9C17.4375 7.95571 17.0227 6.95419 16.2842 6.21577C15.5458 5.47734 14.5443 5.0625 13.5 5.0625Z" fill="#B8B9BD"/>
</svg>
