<svg width="18" height="18" viewBox="0 0 18 18" fill="none" xmlns="http://www.w3.org/2000/svg">
<path d="M15.75 8.99995C15.75 9.14913 15.6907 9.29221 15.5853 9.39769C15.4798 9.50318 15.3367 9.56245 15.1875 9.56245H9.00001C8.85082 9.56245 8.70775 9.50318 8.60226 9.39769C8.49677 9.29221 8.43751 9.14913 8.43751 8.99995C8.43751 8.85076 8.49677 8.70769 8.60226 8.6022C8.70775 8.49671 8.85082 8.43745 9.00001 8.43745H15.1875C15.3367 8.43745 15.4798 8.49671 15.5853 8.6022C15.6907 8.70769 15.75 8.85076 15.75 8.99995ZM9.00001 5.06245H15.1875C15.3367 5.06245 15.4798 5.00318 15.5853 4.89769C15.6907 4.7922 15.75 4.64913 15.75 4.49995C15.75 4.35076 15.6907 4.20769 15.5853 4.1022C15.4798 3.99671 15.3367 3.93745 15.1875 3.93745H9.00001C8.85082 3.93745 8.70775 3.99671 8.60226 4.1022C8.49677 4.20769 8.43751 4.35076 8.43751 4.49995C8.43751 4.64913 8.49677 4.7922 8.60226 4.89769C8.70775 5.00318 8.85082 5.06245 9.00001 5.06245ZM15.1875 12.9374H9.00001C8.85082 12.9374 8.70775 12.9967 8.60226 13.1022C8.49677 13.2077 8.43751 13.3508 8.43751 13.4999C8.43751 13.6491 8.49677 13.7922 8.60226 13.8977C8.70775 14.0032 8.85082 14.0624 9.00001 14.0624H15.1875C15.3367 14.0624 15.4798 14.0032 15.5853 13.8977C15.6907 13.7922 15.75 13.6491 15.75 13.4999C15.75 13.3508 15.6907 13.2077 15.5853 13.1022C15.4798 12.9967 15.3367 12.9374 15.1875 12.9374ZM5.78954 2.97698L3.93751 4.82971L3.21048 4.10198C3.10493 3.99643 2.96177 3.93713 2.81251 3.93713C2.66324 3.93713 2.52009 3.99643 2.41454 4.10198C2.30899 4.20753 2.24969 4.35068 2.24969 4.49995C2.24969 4.64921 2.30899 4.79237 2.41454 4.89792L3.53954 6.02292C3.59178 6.07521 3.65382 6.1167 3.7221 6.14501C3.79039 6.17332 3.86359 6.18789 3.93751 6.18789C4.01143 6.18789 4.08463 6.17332 4.15291 6.14501C4.2212 6.1167 4.28324 6.07521 4.33548 6.02292L6.58548 3.77292C6.69102 3.66737 6.75032 3.52421 6.75032 3.37495C6.75032 3.22568 6.69102 3.08253 6.58548 2.97698C6.47993 2.87143 6.33677 2.81213 6.18751 2.81213C6.03824 2.81213 5.89509 2.87143 5.78954 2.97698ZM5.78954 7.47698L3.93751 9.32971L3.21048 8.60198C3.10493 8.49643 2.96177 8.43713 2.81251 8.43713C2.66324 8.43713 2.52009 8.49643 2.41454 8.60198C2.30899 8.70753 2.24969 8.85068 2.24969 8.99995C2.24969 9.07386 2.26425 9.14704 2.29254 9.21533C2.32082 9.28361 2.36228 9.34565 2.41454 9.39792L3.53954 10.5229C3.59178 10.5752 3.65382 10.6167 3.7221 10.645C3.79039 10.6733 3.86359 10.6879 3.93751 10.6879C4.01143 10.6879 4.08463 10.6733 4.15291 10.645C4.2212 10.6167 4.28324 10.5752 4.33548 10.5229L6.58548 8.27292C6.69102 8.16737 6.75032 8.02421 6.75032 7.87495C6.75032 7.72568 6.69102 7.58253 6.58548 7.47698C6.47993 7.37143 6.33677 7.31213 6.18751 7.31213C6.03824 7.31213 5.89509 7.37143 5.78954 7.47698ZM5.78954 11.977L3.93751 13.8297L3.21048 13.102C3.15821 13.0497 3.09617 13.0083 3.02789 12.98C2.9596 12.9517 2.88642 12.9371 2.81251 12.9371C2.7386 12.9371 2.66541 12.9517 2.59713 12.98C2.52884 13.0083 2.4668 13.0497 2.41454 13.102C2.36228 13.1542 2.32082 13.2163 2.29254 13.2846C2.26425 13.3529 2.24969 13.426 2.24969 13.4999C2.24969 13.5739 2.26425 13.647 2.29254 13.7153C2.32082 13.7836 2.36228 13.8457 2.41454 13.8979L3.53954 15.0229C3.59178 15.0752 3.65382 15.1167 3.7221 15.145C3.79039 15.1733 3.86359 15.1879 3.93751 15.1879C4.01143 15.1879 4.08463 15.1733 4.15291 15.145C4.2212 15.1167 4.28324 15.0752 4.33548 15.0229L6.58548 12.7729C6.69102 12.6674 6.75032 12.5242 6.75032 12.3749C6.75032 12.2257 6.69102 12.0825 6.58548 11.977C6.47993 11.8714 6.33677 11.8121 6.18751 11.8121C6.03824 11.8121 5.89509 11.8714 5.78954 11.977Z" fill="#B8B9BD"/>
</svg>
