<svg width="25" height="24" viewBox="0 0 25 24" fill="none" xmlns="http://www.w3.org/2000/svg">
<path d="M13.7916 12C13.7916 12.2225 13.7256 12.44 13.602 12.625C13.4784 12.81 13.3027 12.9542 13.0971 13.0394C12.8916 13.1245 12.6654 13.1468 12.4471 13.1034C12.2289 13.06 12.0285 12.9528 11.8711 12.7955C11.7138 12.6382 11.6067 12.4377 11.5632 12.2195C11.5198 12.0012 11.5421 11.775 11.6273 11.5695C11.7124 11.3639 11.8566 11.1882 12.0416 11.0646C12.2266 10.941 12.4441 10.875 12.6666 10.875C12.965 10.875 13.2511 10.9935 13.4621 11.2045C13.6731 11.4155 13.7916 11.7016 13.7916 12ZM12.6666 6.75C12.8891 6.75 13.1066 6.68402 13.2916 6.5604C13.4766 6.43679 13.6208 6.26109 13.706 6.05552C13.7911 5.84995 13.8134 5.62375 13.77 5.40552C13.7266 5.1873 13.6195 4.98684 13.4621 4.82951C13.3048 4.67217 13.1043 4.56503 12.8861 4.52162C12.6679 4.47821 12.4417 4.50049 12.2361 4.58564C12.0305 4.67078 11.8548 4.81498 11.7312 4.99998C11.6076 5.18499 11.5416 5.4025 11.5416 5.625C11.5416 5.92337 11.6602 6.20952 11.8711 6.4205C12.0821 6.63147 12.3683 6.75 12.6666 6.75ZM12.6666 17.25C12.4441 17.25 12.2266 17.316 12.0416 17.4396C11.8566 17.5632 11.7124 17.7389 11.6273 17.9445C11.5421 18.15 11.5198 18.3762 11.5632 18.5945C11.6067 18.8127 11.7138 19.0132 11.8711 19.1705C12.0285 19.3278 12.2289 19.435 12.4471 19.4784C12.6654 19.5218 12.8916 19.4995 13.0971 19.4144C13.3027 19.3292 13.4784 19.185 13.602 19C13.7256 18.815 13.7916 18.5975 13.7916 18.375C13.7916 18.0766 13.6731 17.7905 13.4621 17.5795C13.2511 17.3685 12.965 17.25 12.6666 17.25Z" fill="#B8B9BD"/>
</svg>
